#N canvas 70 252 974 533 10;
#X declare -path .;
#X declare -path s-abstractions/trunk/;
#X declare -path common;
#X declare -path blockhead;
#X obj 18 405 t a b;
#N canvas 0 50 450 300 (subpatch) 0;
#X array \$0/loop 185124 float 2;
#X coords 0 1 185124 -1 200 100 1 0 0;
#X restore 754 419 graph;
#N canvas 2 48 450 300 load-sample 0;
#X obj 14 115 soundfiler;
#X obj 14 139 outlet;
#X obj 14 25 inlet;
#X obj 14 47 symbol;
#X obj 14 69 list append \$0/loop;
#X msg 14 91 read -resize breaks/\$1.wav \$2;
#X connect 0 0 1 0;
#X connect 2 0 3 0;
#X connect 3 0 4 0;
#X connect 4 0 5 0;
#X connect 5 0 0 0;
#X restore 820 213 pd load-sample;
#X floatatom 820 235 10 0 0 0 - - -, f 10;
#X obj 866 78 declare -path .;
#X obj 745 12 declare -path s-abstractions/trunk/;
#N canvas 108 153 450 329 build-a-break 0;
#X obj 16 18 inlet;
#X obj 16 102 swap;
#X obj 16 124 until;
#X obj 46 176 + 1;
#X obj 16 176 f;
#X obj 16 40 t a b;
#X msg 106 80 0;
#X obj 16 220 +;
#X obj 43 220 +;
#X obj 16 80 unpack f f f;
#X text 58 17 start-index length offset;
#X obj 16 198 t f f;
#X obj 16 242 swap;
#X obj 16 264 pack f f;
#X obj 16 286 outlet;
#X connect 0 0 5 0;
#X connect 1 0 2 0;
#X connect 1 1 7 1;
#X connect 2 0 4 0;
#X connect 3 0 4 1;
#X connect 4 0 3 0;
#X connect 4 0 11 0;
#X connect 5 0 9 0;
#X connect 5 1 6 0;
#X connect 6 0 4 1;
#X connect 7 0 12 0;
#X connect 8 0 12 1;
#X connect 9 0 1 0;
#X connect 9 1 1 1;
#X connect 9 2 8 1;
#X connect 11 0 7 0;
#X connect 11 1 8 0;
#X connect 12 0 13 0;
#X connect 12 1 13 1;
#X connect 13 0 14 0;
#X restore 427 231 pd build-a-break;
#N canvas 0 50 450 300 (subpatch) 0;
#X array \$1/sequence 16 float 2;
#X coords 0 15 16 0 200 100 1 0 0;
#X restore 544 419 graph;
#X obj 18 138 mod 16;
#X obj 18 18 r \$1/tick;
#X obj 52 293 r \$1/slices;
#X obj 93 37 r \$1/rate;
#X obj 18 480 loop-switcher;
#X obj 836 34 declare -path common;
#N canvas 2 50 450 300 generators 0;
#X obj 9 30 r \$1/makenew;
#X text 7 7 run all generators;
#X restore 189 27 pd generators;
#X obj 18 338 pack f 32 60;
#X obj 18 506 throw~ \$1/out;
#X obj 818 56 declare -path blockhead;
#X obj 402 12 r \$1/pickstyle;
#N canvas 2 48 450 300 pickbreak 0;
#X msg 107 87 amen;
#X msg 146 87 think;
#X msg 190 87 hotpants;
#X obj 107 12 r \$1/pickbreak;
#X obj 107 54 sel 0 1 2;
#X obj 107 154 s \$1/sample/set;
#X obj 107 34 u_seededrandom 3 \$1/seed;
#X obj 107 129 symbol;
#X connect 0 0 7 0;
#X connect 1 0 7 0;
#X connect 2 0 7 0;
#X connect 3 0 6 0;
#X connect 4 0 0 0;
#X connect 4 1 1 0;
#X connect 4 2 2 0;
#X connect 6 0 4 0;
#X connect 7 0 5 0;
#X restore 820 122 pd pickbreak;
#X obj 820 146 r \$1/sample/set;
#X obj 820 168 s \$1/sample;
#X obj 820 191 r \$1/sample;
#X obj 228 255 r \$1/pickpitch;
#X obj 228 278 u_seededrandom 12 \$1/seed;
#X obj 228 322 s \$1/pitch/set;
#X obj 87 316 r \$1/pitch;
#X obj 228 346 r \$1/pitch/set;
#X obj 228 368 s \$1/pitch;
#X obj 189 48 r \$1/makenew;
#X obj 189 70 symbol \$1;
#N canvas 862 160 565 666 break-types 0;
#X obj 35 19 inlet;
#X msg 35 132 0 16 0;
#X msg 354 433 6;
#X msg 268 454 2;
#X msg 302 461 6;
#X msg 270 498 4 4 \$1;
#X msg 355 497 0 4 \$1;
#X msg 366 413 8;
#X text 43 115 default;
#X text 44 161 third-repeat style;
#X msg 53 182 0 16 0 \, 0 10 6;
#X msg 307 433 8;
#X obj 35 626 outlet;
#X text 93 627 < start-index length offset;
#X msg 71 236 0 16 0 \, 4 4 2 \, 0 10 6 \, 12 4 10;
#X text 62 209 d&b style;
#X msg 323 271 \$1 1 \$2;
#X obj 323 249 pack f f;
#X msg 323 152 bang;
#X obj 323 174 t b b;
#X obj 323 130 until;
#X obj 296 109 sel 0;
#X obj 296 14 inlet;
#X msg 96 279 0 16 0 \, 0 16 4;
#X text 93 258 hip hop style;
#X msg 118 325 0 16 0 \, 6 4 2 \, 0 8 6;
#X text 115 305 reggaeton;
#X obj 35 95 sel 0 1 2 3 4;
#X obj 323 196 u_seededrandom 16 \$1/seed;
#X obj 368 223 u_seededrandom 16 \$1/seed;
#X connect 0 0 27 0;
#X connect 1 0 12 0;
#X connect 2 0 6 0;
#X connect 3 0 5 0;
#X connect 4 0 5 0;
#X connect 5 0 12 0;
#X connect 6 0 12 0;
#X connect 7 0 6 0;
#X connect 10 0 12 0;
#X connect 11 0 5 0;
#X connect 14 0 12 0;
#X connect 16 0 12 0;
#X connect 17 0 16 0;
#X connect 18 0 19 0;
#X connect 19 0 28 0;
#X connect 19 1 29 0;
#X connect 20 0 18 0;
#X connect 21 1 20 0;
#X connect 22 0 21 0;
#X connect 23 0 12 0;
#X connect 25 0 12 0;
#X connect 27 0 1 0;
#X connect 27 1 10 0;
#X connect 27 2 14 0;
#X connect 27 3 23 0;
#X connect 27 4 25 0;
#X connect 28 0 17 0;
#X connect 29 0 17 1;
#X restore 427 209 pd break-types;
#X msg 18 363 \$2 \$1 \$3 3;
#X obj 18 385 list prepend \$0/loop;
#X obj 427 175 hradio 15 1 0 5 empty empty empty 0 -8 0 10 -262144
-1 -1 3;
#X obj 427 253 s \$1/sequence;
#X obj 18 160 tabread \$1/sequence;
#X obj 820 254 bang;
#X obj 820 276 \$0;
#X msg 820 298 \; \$1/loop normalize;
#X obj 612 63 r \$1/pickmutations;
#X obj 612 131 sel 1;
#X obj 612 153 u_seededrandom 10 \$1/seed;
#X obj 427 153 u_seededrandom 5 \$1/seed;
#X obj 402 128 u_seededrandom 3 \$1/seed;
#N canvas 312 311 450 300 mutation 0;
#X obj 11 8 inlet;
#X obj 11 244 outlet;
#X obj 72 94 inlet;
#X obj 57 65 u_seededrandom 127 \$1/seed;
#X obj 57 117 < 0;
#X obj 84 159 sel 1;
#X obj 44 159 == 0;
#X obj 57 139 t f f;
#X obj 11 182 spigot 1;
#X obj 11 30 t f b f;
#X obj 83 181 u_seededrandom 8 \$1/seed;
#X obj 83 203 + 0;
#X obj 164 114 mod 2;
#X connect 0 0 9 0;
#X connect 2 0 4 1;
#X connect 3 0 4 0;
#X connect 4 0 7 0;
#X connect 5 0 10 0;
#X connect 6 0 8 1;
#X connect 7 0 6 0;
#X connect 7 1 5 0;
#X connect 8 0 1 0;
#X connect 9 0 8 0;
#X connect 9 1 3 0;
#X connect 9 2 12 0;
#X connect 10 0 11 0;
#X connect 11 0 1 0;
#X connect 12 0 11 1;
#X restore 18 207 pd mutation;
#X obj 81 184 r \$1/mutationrate;
#N canvas 0 50 450 300 (subpatch) 0;
#X array \$1/rateseq 16 float 2;
#X coords 0 1 16 0 200 100 1 0 0;
#X restore 334 419 graph;
#N canvas 497 172 450 300 rate-shift 0;
#X obj 8 8 inlet;
#X obj 175 8 inlet;
#X obj 8 273 outlet;
#X obj 160 107 max;
#X obj 8 50 t f f;
#X obj 35 70 tabread \$1/rateseq;
#X obj 8 226 int;
#X obj 8 246 change;
#X obj 8 204 / 1;
#X obj 160 129 int;
#X obj 8 30 mod 16;
#X obj 160 151 + 1;
#X obj 160 81 t b f;
#X connect 0 0 10 0;
#X connect 1 0 12 0;
#X connect 3 0 9 0;
#X connect 4 0 8 0;
#X connect 4 1 5 0;
#X connect 5 0 3 0;
#X connect 6 0 7 0;
#X connect 7 0 2 0;
#X connect 8 0 6 0;
#X connect 9 0 11 0;
#X connect 10 0 4 0;
#X connect 11 0 8 1;
#X connect 12 0 3 0;
#X connect 12 1 3 1;
#X restore 18 58 pd rate-shift;
#X obj 365 331 r \$1/pickslow;
#N canvas 87 233 450 413 pick-slow-rate-seq 0;
#X obj 9 7 inlet;
#X obj 9 187 until;
#X obj 9 209 t b b;
#X obj 9 332 list prepend \$1;
#X obj 36 73 s \$1/rateseq;
#X msg 36 50 const 0;
#X obj 9 29 t b b;
#X msg 9 356 \; \$1/rateseq \$2 1;
#X obj 9 280 t f f;
#X obj 36 302 + 1;
#X obj 116 332 list prepend \$1;
#X msg 116 354 \; \$1/rateseq \$2 1;
#X obj 9 229 u_seededrandom 8 \$1/seed;
#X obj 9 251 * 2;
#X obj 9 165 u_seededrandom 5 \$1/seed;
#X connect 0 0 6 0;
#X connect 1 0 2 0;
#X connect 2 0 12 0;
#X connect 3 0 7 0;
#X connect 5 0 4 0;
#X connect 6 0 14 0;
#X connect 6 1 5 0;
#X connect 8 0 3 0;
#X connect 8 1 9 0;
#X connect 9 0 10 0;
#X connect 10 0 11 0;
#X connect 12 0 13 0;
#X connect 13 0 8 0;
#X connect 14 0 1 0;
#X restore 365 353 pd pick-slow-rate-seq;
#X obj 228 300 + 58;
#X obj 612 87 u_seededrandom 5 \$1/seed;
#X obj 612 109 == 0;
#X obj 45 272 s \$1/index;
#X obj 18 250 t f f;
#X obj 18 229 int;
#X obj 483 35 r \$1/sample;
#N canvas 2 48 450 300 check-for-amen 0;
#X obj 15 10 inlet;
#X obj 15 32 sel amen;
#X msg 15 54 0;
#X msg 60 53 1;
#X obj 15 76 outlet;
#X connect 0 0 1 0;
#X connect 1 0 2 0;
#X connect 1 1 3 0;
#X connect 2 0 4 0;
#X connect 3 0 4 0;
#X restore 483 57 pd check-for-amen;
#X obj 402 108 route 0 1;
#X obj 402 84 list prepend 1;
#X floatatom 510 106 5 0 0 0 - - -, f 5;
#X msg 189 90 \; \$1/pickbreak bang \; \$1/pickstyle bang \; \$1/pickmutations
bang \; \$1/pickpitch bang \; \$1/pickslow bang \;;
#X obj 157 448 timer;
#X obj 157 405 r \$1/tick;
#X obj 157 427 t b b;
#X obj 157 470 / 1;
#X obj 223 405 r \$1/clip;
#X obj 223 471 pow;
#X msg 223 448 2;
#X obj 223 427 t f f;
#X obj 45 428 delay 1000;
#X obj 223 493 / 2;
#X connect 0 0 12 0;
#X connect 0 1 71 0;
#X connect 2 0 3 0;
#X connect 3 0 37 0;
#X connect 6 0 35 0;
#X connect 8 0 36 0;
#X connect 9 0 48 0;
#X connect 10 0 15 1;
#X connect 11 0 48 1;
#X connect 12 0 16 0;
#X connect 15 0 32 0;
#X connect 18 0 60 0;
#X connect 20 0 21 0;
#X connect 22 0 2 0;
#X connect 23 0 24 0;
#X connect 24 0 51 0;
#X connect 26 0 15 2;
#X connect 27 0 28 0;
#X connect 29 0 30 0;
#X connect 30 0 62 0;
#X connect 31 0 6 0;
#X connect 32 0 33 0;
#X connect 33 0 0 0;
#X connect 34 0 31 0;
#X connect 36 0 45 0;
#X connect 37 0 38 0;
#X connect 38 0 39 0;
#X connect 40 0 52 0;
#X connect 41 0 42 0;
#X connect 42 0 31 1;
#X connect 43 0 34 0;
#X connect 44 0 34 0;
#X connect 45 0 56 0;
#X connect 46 0 45 1;
#X connect 48 0 8 0;
#X connect 49 0 50 0;
#X connect 51 0 25 0;
#X connect 52 0 53 0;
#X connect 53 0 41 0;
#X connect 55 0 15 0;
#X connect 55 1 54 0;
#X connect 56 0 55 0;
#X connect 57 0 58 0;
#X connect 58 0 60 1;
#X connect 59 0 44 0;
#X connect 59 1 43 0;
#X connect 60 0 59 0;
#X connect 60 0 61 0;
#X connect 63 0 66 0;
#X connect 64 0 65 0;
#X connect 65 0 63 0;
#X connect 65 1 63 1;
#X connect 66 0 71 1;
#X connect 67 0 70 0;
#X connect 68 0 72 0;
#X connect 69 0 68 0;
#X connect 70 0 69 0;
#X connect 70 1 68 1;
#X connect 71 0 12 1;
#X connect 72 0 66 1;
