#N canvas 73 267 974 533 10;
#X declare -path .;
#X declare -path s-abstractions/trunk/;
#X declare -path common;
#X declare -path blockhead;
#X obj 18 395 t a b;
#N canvas 0 50 450 300 (subpatch) 0;
#X array \$0/loop 184117 float 2;
#X coords 0 1 184117 -1 200 100 1 0 0;
#X restore 754 399 graph;
#N canvas 2 48 450 300 load-sample 0;
#X obj 14 115 soundfiler;
#X obj 14 139 outlet;
#X obj 14 25 inlet;
#X obj 14 47 symbol;
#X obj 14 69 list append \$0/loop;
#X msg 14 91 read -resize breaks/\$1.wav \$2;
#X connect 0 0 1 0;
#X connect 2 0 3 0;
#X connect 3 0 4 0;
#X connect 4 0 5 0;
#X connect 5 0 0 0;
#X restore 820 213 pd load-sample;
#X floatatom 820 235 10 0 0 0 - - -, f 10;
#X obj 866 78 declare -path .;
#X obj 18 160 int;
#X obj 18 180 change;
#X obj 745 12 declare -path s-abstractions/trunk/;
#N canvas 109 158 450 329 build-a-break 0;
#X obj 16 18 inlet;
#X obj 16 102 swap;
#X obj 16 124 until;
#X obj 46 176 + 1;
#X obj 16 176 f;
#X obj 16 40 t a b;
#X msg 106 80 0;
#X obj 16 220 +;
#X obj 43 220 +;
#X obj 16 80 unpack f f f;
#X text 58 17 start-index length offset;
#X obj 16 198 t f f;
#X obj 16 242 swap;
#X obj 16 264 pack f f;
#X obj 16 286 outlet;
#X connect 0 0 5 0;
#X connect 1 0 2 0;
#X connect 1 1 7 1;
#X connect 2 0 4 0;
#X connect 3 0 4 1;
#X connect 4 0 3 0;
#X connect 4 0 11 0;
#X connect 5 0 9 0;
#X connect 5 1 6 0;
#X connect 6 0 4 1;
#X connect 7 0 12 0;
#X connect 8 0 12 1;
#X connect 9 0 1 0;
#X connect 9 1 1 1;
#X connect 9 2 8 1;
#X connect 11 0 7 0;
#X connect 11 1 8 0;
#X connect 12 0 13 0;
#X connect 12 1 13 1;
#X connect 13 0 14 0;
#X restore 427 121 pd build-a-break;
#N canvas 0 50 450 300 (subpatch) 0;
#X array \$1/sequence 16 float 2;
#X coords 0 15 16 0 200 100 1 0 0;
#X restore 544 399 graph;
#X obj 18 202 mod 16;
#X obj 85 113 + 1;
#X obj 18 88 r \$1/tick;
#X obj 52 283 r \$1/slices;
#X obj 85 89 r \$1/rate;
#X obj 18 470 loop-switcher;
#X obj 836 34 declare -path common;
#X obj 18 138 / 1;
#N canvas 2 50 450 300 generators 0;
#X obj 9 30 r \$1/makenew;
#X text 7 7 run all generators;
#X restore 189 27 pd generators;
#X obj 18 328 pack f 32 60;
#X obj 18 496 throw~ \$1/out;
#X obj 818 56 declare -path blockhead;
#X obj 427 32 r \$1/pickstyle;
#N canvas 2 48 450 300 pickbreak 0;
#X msg 107 87 amen;
#X msg 146 87 think;
#X msg 190 87 hotpants;
#X obj 107 12 r \$1/pickbreak;
#X obj 107 54 sel 0 1 2;
#X obj 107 154 s \$1/sample/set;
#X obj 107 34 u_seededrandom 3 \$1/seed;
#X obj 107 129 symbol;
#X connect 0 0 7 0;
#X connect 1 0 7 0;
#X connect 2 0 7 0;
#X connect 3 0 6 0;
#X connect 4 0 0 0;
#X connect 4 1 1 0;
#X connect 4 2 2 0;
#X connect 6 0 4 0;
#X connect 7 0 5 0;
#X restore 820 122 pd pickbreak;
#X obj 820 146 r \$1/sample/set;
#X obj 820 168 s \$1/sample;
#X obj 820 191 r \$1/sample;
#X obj 278 236 r \$1/pickpitch;
#X obj 278 259 u_seededrandom 12 \$1/seed;
#X obj 278 281 + 60;
#X obj 278 303 s \$1/pitch/set;
#X obj 87 306 r \$1/pitch;
#X obj 278 327 r \$1/pitch/set;
#X obj 278 349 s \$1/pitch;
#X obj 189 48 r \$1/makenew;
#X obj 189 70 symbol \$1;
#X obj 427 57 u_seededrandom 3 \$1/seed;
#N canvas 866 180 450 666 break-types 0;
#X obj 35 19 inlet;
#X msg 35 132 0 16 0;
#X msg 169 282 6;
#X msg 83 303 2;
#X msg 117 310 6;
#X msg 85 347 4 4 \$1;
#X msg 170 346 0 4 \$1;
#X msg 200 282 8;
#X text 10 113 default;
#X text 44 161 third-repeat style;
#X msg 53 182 0 16 0 \, 0 10 6;
#X msg 122 282 8;
#X obj 35 95 sel 0 1 2;
#X obj 35 626 outlet;
#X text 93 627 < start-index length offset;
#X msg 71 236 0 16 0 \, 4 4 2 \, 0 10 6 \, 12 4 10;
#X text 62 209 d&b style;
#X msg 303 271 \$1 1 \$2;
#X obj 303 223 random 16;
#X obj 368 223 random 16;
#X obj 303 249 pack f f;
#X msg 303 172 bang;
#X obj 303 194 t b b;
#X obj 303 150 until;
#X obj 303 129 sel 0;
#X obj 303 34 inlet;
#X connect 0 0 12 0;
#X connect 1 0 13 0;
#X connect 2 0 6 0;
#X connect 3 0 5 0;
#X connect 4 0 5 0;
#X connect 5 0 13 0;
#X connect 6 0 13 0;
#X connect 7 0 6 0;
#X connect 10 0 13 0;
#X connect 11 0 5 0;
#X connect 12 0 1 0;
#X connect 12 1 10 0;
#X connect 12 2 15 0;
#X connect 15 0 13 0;
#X connect 17 0 13 0;
#X connect 18 0 20 0;
#X connect 19 0 20 1;
#X connect 20 0 17 0;
#X connect 21 0 22 0;
#X connect 22 0 18 0;
#X connect 22 1 19 0;
#X connect 23 0 21 0;
#X connect 24 1 23 0;
#X connect 25 0 24 0;
#X restore 427 99 pd break-types;
#X msg 18 353 \$2 \$1 \$3 3;
#X obj 18 375 list prepend \$0/loop;
#X obj 427 79 hradio 15 1 0 3 empty empty empty 0 -8 0 10 -262144 -1
-1 1;
#X obj 427 143 s \$1/sequence;
#X obj 18 224 tabread \$1/sequence;
#X obj 820 254 bang;
#X obj 820 276 \$0;
#X msg 820 298 \; \$1/loop normalize;
#X obj 45 418 delay 1000;
#X obj 582 57 u_seededrandom 5 \$1/seed;
#X obj 582 33 r \$1/pickmutations;
#X msg 189 90 \; \$1/pickstyle bang \; \$1/pickmutations bang \; \$1/pickbreak
bang \; \$1/pickpitch bang \;;
#X connect 0 0 15 0;
#X connect 0 1 46 0;
#X connect 2 0 3 0;
#X connect 3 0 43 0;
#X connect 5 0 6 0;
#X connect 6 0 10 0;
#X connect 8 0 41 0;
#X connect 10 0 42 0;
#X connect 11 0 17 1;
#X connect 12 0 17 0;
#X connect 13 0 19 1;
#X connect 14 0 11 0;
#X connect 15 0 20 0;
#X connect 17 0 5 0;
#X connect 19 0 38 0;
#X connect 22 0 36 0;
#X connect 24 0 25 0;
#X connect 26 0 2 0;
#X connect 27 0 28 0;
#X connect 28 0 29 0;
#X connect 29 0 30 0;
#X connect 31 0 19 2;
#X connect 32 0 33 0;
#X connect 34 0 35 0;
#X connect 35 0 49 0;
#X connect 36 0 40 0;
#X connect 37 0 8 0;
#X connect 38 0 39 0;
#X connect 39 0 0 0;
#X connect 40 0 37 0;
#X connect 42 0 19 0;
#X connect 43 0 44 0;
#X connect 44 0 45 0;
#X connect 46 0 15 1;
#X connect 47 0 37 1;
#X connect 48 0 47 0;
