#N canvas 122 175 974 533 10;
#X declare -path .;
#X declare -path s-abstractions/trunk/;
#X declare -path common;
#X obj 45 398 delay 20;
#X obj 18 375 t a b;
#N canvas 0 50 450 300 (subpatch) 0;
#X array loop 154231 float 2;
#X coords 0 1 154231 -1 200 100 1 0 0;
#X restore 754 399 graph;
#N canvas 2 50 450 300 load-sample 0;
#X obj 14 103 soundfiler;
#X obj 14 127 outlet;
#X obj 14 25 inlet;
#X obj 14 47 symbol;
#X msg 14 79 read -resize breaks/\$1.wav loop;
#X connect 0 0 1 0;
#X connect 2 0 3 0;
#X connect 3 0 4 0;
#X connect 4 0 0 0;
#X restore 820 173 pd load-sample;
#X floatatom 820 195 10 0 0 0 - - -, f 10;
#X obj 866 56 declare -path .;
#X msg 18 353 loop \$2 \$1 \$3 3;
#X obj 18 190 int;
#X obj 18 210 change;
#X msg 820 214 \; loop normalize;
#X msg 792 112 amen;
#X msg 831 112 think;
#X obj 745 12 declare -path s-abstractions/trunk/;
#X obj 45 420 spigot 0;
#X msg 875 112 hotpants;
#N canvas 112 173 450 329 build-a-break 0;
#X obj 16 18 inlet;
#X obj 16 102 swap;
#X obj 16 124 until;
#X obj 46 176 + 1;
#X obj 16 176 f;
#X obj 16 40 t a b;
#X msg 106 80 0;
#X obj 16 220 +;
#X obj 43 220 +;
#X obj 16 80 unpack f f f;
#X text 58 17 start-index length offset;
#X obj 16 198 t f f;
#X obj 16 242 swap;
#X obj 16 264 pack f f;
#X obj 16 286 outlet;
#X connect 0 0 5 0;
#X connect 1 0 2 0;
#X connect 1 1 7 1;
#X connect 2 0 4 0;
#X connect 3 0 4 1;
#X connect 4 0 3 0;
#X connect 4 0 11 0;
#X connect 5 0 9 0;
#X connect 5 1 6 0;
#X connect 6 0 4 1;
#X connect 7 0 12 0;
#X connect 8 0 12 1;
#X connect 9 0 1 0;
#X connect 9 1 1 1;
#X connect 9 2 8 1;
#X connect 11 0 7 0;
#X connect 11 1 8 0;
#X connect 12 0 13 0;
#X connect 12 1 13 1;
#X connect 13 0 14 0;
#X restore 457 281 pd build-a-break;
#N canvas 0 50 450 300 (subpatch) 0;
#X array loop-lookup 16 float 2;
#X coords 0 15 16 0 200 100 1 0 0;
#X restore 544 399 graph;
#X obj 457 303 s loop-lookup;
#X msg 427 86 0 16 0;
#X obj 18 254 tabread loop-lookup;
#X obj 18 232 mod 16;
#X msg 463 115 0 10 6;
#X msg 584 172 6;
#X msg 502 179 2;
#X msg 536 186 6;
#X msg 504 223 4 4 \$1;
#X msg 593 234 0 4 \$1;
#X msg 620 196 8;
#X text 365 86 default;
#X text 520 115 third-repeat style;
#X obj 85 143 + 1;
#X obj 18 118 r \$1/tick;
#X obj 87 303 r \$1/pitch;
#X obj 52 279 r \$1/slices;
#X obj 85 119 r \$1/rate;
#X obj 18 450 loop-switcher;
#X obj 836 34 declare -path common;
#X obj 820 139 r $/sample;
#X obj 18 168 / 1;
#N canvas 2 48 450 300 generators 0;
#X obj 9 30 r \$1/makenew;
#X text 7 7 run all generators;
#X restore 205 117 pd generators;
#X obj 18 328 pack f 32 60;
#X obj 18 476 throw~ \$1/out;
#X connect 0 0 13 0;
#X connect 1 0 35 0;
#X connect 1 1 0 0;
#X connect 3 0 4 0;
#X connect 4 0 9 0;
#X connect 6 0 1 0;
#X connect 7 0 8 0;
#X connect 8 0 20 0;
#X connect 10 0 3 0;
#X connect 11 0 3 0;
#X connect 13 0 35 1;
#X connect 14 0 3 0;
#X connect 15 0 17 0;
#X connect 18 0 15 0;
#X connect 19 0 40 0;
#X connect 20 0 19 0;
#X connect 21 0 15 0;
#X connect 22 0 26 0;
#X connect 23 0 25 0;
#X connect 24 0 25 0;
#X connect 25 0 15 0;
#X connect 26 0 15 0;
#X connect 27 0 26 0;
#X connect 30 0 38 1;
#X connect 31 0 38 0;
#X connect 32 0 40 2;
#X connect 33 0 40 1;
#X connect 34 0 30 0;
#X connect 35 0 41 0;
#X connect 37 0 3 0;
#X connect 38 0 7 0;
#X connect 40 0 6 0;
