#N canvas 1101 203 450 300 10;
#X obj 9 15 inlet;
#X obj 9 42 t a b;
#X obj 36 92 == 0;
#X text 81 102 switch between two available chunk players (audio overlap)
;
#X obj 36 69 0;
#X obj 9 210 chunk-player;
#X obj 88 210 chunk-player;
#X obj 9 118 list prepend;
#X obj 9 140 route 0 1;
#X obj 9 250 outlet~;
#X obj 9 162 t a b;
#X obj 49 162 t a b;
#X obj 157 162 inlet cut;
#X text 61 20 tablename num_slices slice_index pitch(midi) ramp-in(ms)
;
#X connect 0 0 1 0;
#X connect 1 0 7 0;
#X connect 1 1 4 0;
#X connect 2 0 4 1;
#X connect 2 0 7 1;
#X connect 4 0 2 0;
#X connect 5 0 9 0;
#X connect 6 0 9 0;
#X connect 7 0 8 0;
#X connect 8 0 10 0;
#X connect 8 1 11 0;
#X connect 10 0 5 0;
#X connect 10 1 6 1;
#X connect 11 0 6 0;
#X connect 11 1 5 1;
#X connect 12 0 6 1;
#X connect 12 0 5 1;
